<?xml version="1.0" encoding="UTF-8"?>
<svg id="Layer_1" xmlns="http://www.w3.org/2000/svg" version="1.1" viewBox="0 0 212 150">
  <!-- Generator: Adobe Illustrator 29.0.1, SVG Export Plug-In . SVG Version: 2.1.0 Build 192)  -->
  <path d="M173.7,68.7c-1.1-1-1.6-.9-2.7-1.2-2.4-.1-4.1.5-5.7,1.8-1.4,1.1-1.7,1.9-2.1,2.3-.1-.2-.2-.7-.3-.9-.1-.3-.2-.6-.4-.9-1-1.9-2.8-2.4-5-2.3-.4,0-.8,0-1.2.2-.3,0-.9.3-1,.3l-.3.2c-.9.4-1.8,1.1-2.5,1.8s-.6.7-.8.8l.4-2.8h-5.1l-4.2,23.7h5.4c.7-3.6,1.3-7.4,1.9-11,.3-1.8.7-3.6,1.3-5.1.7-1.5,1.7-2.8,3.1-3.4.9-.4,1.9-.2,2.5.4.6.7.6,1.5.5,2.6-.2,1.9-.6,3.7-.9,5.6,0,.4-1.9,10.6-1.9,11.1h5.4c.3-1.4.7-4,1-5.5.5-2.9,1.3-8.1,2.4-10.6.6-1.4,1.8-2.9,3.2-3.4.9-.3,2-.2,2.5.4.6.7.6,1.5.4,2.6-.3,1.9-.6,3.7-1,5.5,0,.4-2,10.7-2,11.1h5.4c.4-2,.8-4.6,1.2-6.7.4-2.3.8-4.5,1.2-6.8.5-3,1.7-7.3-.9-9.6h0l.2-.2ZM141.7,75.3c.2-2.2,0-3.6-1-5.1-.8-1.2-2-2.1-3.8-2.5-2.8-.7-6.6-.3-8.9,1.6-.9.7-1.5,1.5-2.1,2.6-.2.4-.9,1.8-.9,2.2l5.2.5c.2-.3.3-1.4,1.5-2.2,1.3-.8,4.4-.9,4.7,1.5,0,.5,0,1.2-.1,1.7,0,.2,0,.5-.2.7q0,.2-.2.2c-1.7.6-4.7.7-6.6,1.1-2,.4-3.6.9-4.8,2.3-2.2,2.5-2.5,8,.2,10.8,1.1,1.2,3.1,2,5.4,1.3.9-.3,1.8-.7,2.4-1.2.5-.4,1.5-1.3,1.8-1.8v.3c0,.7.2,1.6.4,2.3h5.3c0-.5-.3-1.5-.4-2.7-.2-3.3,1.6-10,2-13.7h.1ZM135.5,80.7c0,.8-.4,2.2-.6,3-.5,1.8-1.5,3.2-3.4,3.8-2.5.7-3.9-1.3-3.4-3.4.5-2.3,3.9-2.7,5.9-3,.5,0,1-.2,1.5-.3h0ZM118.3,91.8l5.8-32.8h-5.4l-1.5,8.3c0,.4-.5,3.4-.7,3.5,0,.4-.3,2.1-.4,2.6l-2.3,13.1c-.2.9-.3,1.8-.5,2.6l-.5,2.6h5.5ZM112,78.7c.1-5.5-2-7.5-2.1-7.9l-.4-.4c-.1-.1-.2-.3-.3-.4l-.7-.7c-1.8-1.5-4.2-2-6.7-1.9-1.6.2-2.7.4-3.9,1-1.1.6-2.2,1.4-2.9,2.1-.8.9-1.4,1.7-2,3-2,4-2.5,10.5-.3,14.3.4.7.5.9,1,1.5l.6.6c.2.2.4.4.7.6,2.8,2.1,6.9,2.3,9.9.9,4.7-2.1,7-7.8,7.1-12.8h0ZM101.1,87.4c-2,.2-3.3-1.1-3.9-2.4-.7-1.5-.7-3.6-.4-5.4.6-3.3,2-6.9,5.3-7.3,2-.3,3.3,1,4,2.3,1.6,3.4-.3,12.4-4.9,12.9h-.1ZM91,73.4l2.1-5.2c-.8-.3-1.2-.6-2.3-.7-1.4,0-2.1.5-2.4.6,0,.1,0,0-.2.1-1.8,1.2-2.4,2.3-3.7,4.3l.7-4.4h-5.1l-4.2,23.8h5.4c.3-1.1.8-4.7,1.1-6.1.6-3.5,1.2-8.2,3.5-10.8.5-.5,1.2-1.2,2-1.5,1.4-.6,2-.3,3,0h0ZM71,91.8l4.5-23.7h-5.4c0,.9-.4,1.9-.5,2.8l-1.6,8.3c-.4,1.8-.7,3.6-1.4,5.1-.6,1.3-1.9,2.9-3.2,3.4-1,.4-1.9.2-2.4-.4-.6-.7-.8-1.4-.6-2.6.2-1.8.7-3.7,1-5.6.3-1.8.7-3.7,1-5.5,0-.5,1-5.1,1-5.5h-5.1c-.5,0-.2,0-.4.3,0,.4-2.3,12.4-2.5,13.3-.3,1.4-.6,3.2-.6,4.6,0,3.2,1.5,5.8,4.5,6,1.6,0,3.1-.4,4.2-1.1,1.8-1.1,2.4-2.1,2.8-2.5l-.5,3h5.2ZM54.3,64.5l1-5.5h-20.5l-5.8,32.8c2.2,0,21.3.1,21.6,0l1-5.4h-16.1l1.6-8.9h14.4l1-5.5h-14.3l1.3-7.4h14.8Z"/>
  <path d="M178.4,70c1.7,0,3.1-1.4,3.1-3.1h0c0-1.7-1.3-3.1-3.1-3.1s-3.1,1.4-3.1,3.1h0c0,1.7,1.3,3.1,3.1,3.1h0ZM178.4,69.6c-1.5,0-2.7-1.2-2.7-2.7h0c0-1.5,1.2-2.8,2.7-2.8s2.7,1.2,2.7,2.7h0c0,1.5-1.2,2.7-2.7,2.7h0ZM177.1,68.5h.7v-1.1h.6l.7,1.1h.8l-.8-1.2c.4-.2.7-.5.7-1h0c0-.3,0-.6-.3-.7-.2-.2-.6-.4-1-.4h-1.5v3.3h.1ZM177.8,66.8v-1h.7c.4,0,.6.2.6.5h0c0,.3-.2.5-.6.5h-.7Z"/>
</svg>